# xmcd CD database file
#
# Track frame offsets:
#	183
#	21683
#	43448
#	65758
#	88670
#	115318
#	137903
#	164680
#	194008
#
# Disc length: 2893 seconds
#
# Revision: 3
# Processed by: cddbd v1.4PL0 Copyright (c) Steve Scherf et al.
# Submitted via: NeoAudio 9.9.9
#
DISCID=950b4b09
DTITLE=Winbush, Angela  - The Real Thing
DYEAR=1989
DGENRE=R&B
TTITLE0=It's The Real Thing
TTITLE1=No More Tears
TTITLE2=Thank You Love
TTITLE3=Lay Your Troubles Down
TTITLE4=Precious
TTITLE5=Please Bring Your Love Back
TTITLE6=Menage A` Trois
TTITLE7=I've Learned To Respect (The Power Of Love)
TTITLE8=I'll Never Be The Same
EXTD=YEAR: 1989
EXTT0=
EXTT1=
EXTT2=
EXTT3=
EXTT4=
EXTT5=
EXTT6=
EXTT7=
EXTT8=
PLAYORDER=
